<?xml version="1.0" standalone="no"?>
<!DOCTYPE svg PUBLIC "-//W3C//DTD SVG 20010904//EN"
 "http://www.w3.org/TR/2001/REC-SVG-20010904/DTD/svg10.dtd">
<svg version="1.0" xmlns="http://www.w3.org/2000/svg"
 width="736.000000pt" height="736.000000pt" viewBox="0 0 736.000000 736.000000"
 preserveAspectRatio="xMidYMid meet">

<g transform="translate(0.000000,736.000000) scale(0.100000,-0.100000)"
fill="#000000" stroke="none">
<path d="M2953 5583 c-62 -119 -146 -324 -202 -493 -44 -130 -111 -388 -111
-425 0 -15 20 -36 65 -68 65 -47 91 -55 123 -38 23 12 274 41 357 41 38 0 78
-6 94 -15 59 -30 107 -115 65 -115 -8 0 -50 18 -91 40 -89 47 -113 48 -208 15
-203 -72 -503 -150 -541 -141 -43 11 -44 115 -3 401 39 273 85 428 216 723 30
68 53 128 50 135 -4 14 -84 -92 -139 -187 -130 -221 -227 -499 -327 -934 -17
-73 -31 -140 -31 -149 0 -28 131 -147 178 -162 39 -13 46 -13 70 3 113 74 375
166 526 185 162 20 351 -30 290 -77 -15 -11 -45 -13 -156 -9 l-138 6 -102
-102 c-152 -152 -544 -459 -656 -514 -52 -25 -53 -25 -91 -8 -60 27 -65 18
-58 -104 14 -241 83 -641 139 -806 96 -287 290 -716 312 -694 3 3 -13 54 -36
114 -85 231 -138 437 -177 692 -41 264 -64 486 -58 555 10 112 17 119 351 376
102 79 234 187 293 239 111 97 141 116 228 139 73 20 115 18 115 -4 0 -39
-175 -183 -244 -201 -37 -9 -47 -16 -53 -39 -12 -45 -8 -755 5 -897 37 -386
121 -773 226 -1038 38 -98 123 -256 161 -302 l25 -30 -21 55 c-12 30 -33 84
-46 120 -63 161 -115 389 -150 650 -15 117 -18 215 -18 720 0 322 -4 594 -8
606 -5 15 1 33 24 67 38 58 163 184 191 192 35 12 39 -9 10 -50 -26 -38 -27
-45 -26 -155 1 -137 39 -325 110 -537 72 -219 121 -304 146 -260 11 21 37 22
44 2 10 -24 22 -18 48 28 95 162 216 605 216 790 0 50 -6 74 -32 124 -17 34
-29 65 -26 68 21 21 155 -97 216 -190 29 -43 32 -55 25 -85 -4 -19 -6 -111 -3
-205 11 -384 5 -935 -13 -1090 -33 -285 -86 -496 -191 -770 l-27 -70 25 30
c36 43 159 294 196 399 74 214 153 591 191 906 14 110 18 887 5 926 -4 14 -24
26 -61 38 -76 24 -253 169 -242 199 6 18 103 11 171 -12 41 -15 76 -37 121
-80 71 -66 359 -298 480 -386 195 -142 214 -169 215 -296 0 -178 -57 -609
-110 -825 -17 -67 -59 -207 -95 -312 -36 -105 -65 -194 -65 -198 0 -19 117
189 158 281 62 140 157 397 181 491 35 137 69 323 91 487 20 160 27 352 12
361 -5 3 -21 -4 -38 -15 -16 -10 -36 -19 -45 -19 -62 0 -626 430 -752 573
l-58 67 -132 -6 c-182 -8 -235 14 -141 61 62 30 242 33 359 6 178 -42 418
-135 440 -171 18 -29 121 16 177 78 72 80 72 77 44 188 -13 55 -36 151 -51
214 -57 246 -133 467 -216 631 -63 126 -219 365 -219 337 0 -4 47 -125 105
-269 92 -227 109 -279 135 -407 40 -204 62 -370 64 -480 2 -141 0 -142 -245
-77 -74 20 -195 56 -269 80 -75 25 -148 45 -163 45 -16 0 -63 -18 -106 -40
-71 -36 -111 -49 -111 -35 0 18 34 66 65 94 28 24 45 31 77 31 76 0 322 -21
363 -32 92 -23 92 -23 151 22 72 56 77 66 60 131 -107 409 -177 613 -291 838
-50 101 -85 152 -72 105 127 -447 172 -655 184 -854 8 -132 11 -130 -169 -130
-77 0 -180 5 -228 12 l-88 11 -68 -71 c-38 -40 -74 -72 -79 -72 -6 0 -17 13
-27 29 -15 28 -74 68 -85 58 -2 -3 3 -19 11 -36 17 -33 21 -81 7 -81 -5 0 -17
12 -26 27 l-18 27 -21 -27 c-27 -34 -41 -34 -62 -2 l-17 26 -27 -26 c-26 -25
-28 -26 -33 -6 -3 11 4 37 14 58 23 45 23 43 2 43 -9 0 -36 -21 -60 -46 l-43
-47 -34 27 c-19 14 -50 47 -68 72 l-33 46 -65 -6 c-144 -14 -306 -24 -330 -21
-14 2 -42 7 -64 10 l-39 6 6 127 c8 209 61 458 171 815 8 26 11 47 7 47 -4 0
-31 -44 -58 -97z"/>
</g>
</svg>
