<?xml version="1.0" standalone="no"?>
<!DOCTYPE svg PUBLIC "-//W3C//DTD SVG 20010904//EN"
 "http://www.w3.org/TR/2001/REC-SVG-20010904/DTD/svg10.dtd">
<svg version="1.0" xmlns="http://www.w3.org/2000/svg"
 width="736.000000pt" height="736.000000pt" viewBox="0 0 736.000000 736.000000"
 preserveAspectRatio="xMidYMid meet">

<g transform="translate(0.000000,736.000000) scale(0.100000,-0.100000)"
fill="#000000" stroke="none">
<path d="M960 6065 c-29 -35 -1 -49 131 -67 68 -10 142 -20 165 -23 39 -5 44
-10 111 -113 435 -659 618 -1518 562 -2631 l-11 -215 -89 -94 c-93 -97 -109
-133 -63 -140 15 -2 43 21 104 88 l84 92 55 -7 c662 -80 1290 -339 1755 -723
179 -148 442 -434 550 -598 l26 -40 -34 -145 c-31 -127 -34 -146 -20 -159 30
-30 47 0 83 150 l35 143 130 63 c338 161 617 228 956 228 195 0 332 -17 514
-64 105 -27 266 -81 294 -98 7 -5 21 -62 32 -127 21 -129 37 -162 66 -133 15
15 15 27 -5 160 -72 499 -118 1147 -151 2148 -15 456 -30 1388 -30 1876 0 329
-3 424 -13 432 -9 8 -54 4 -157 -13 -1098 -183 -2558 -215 -4045 -90 -360 30
-889 89 -996 111 -17 3 -31 -1 -39 -11z m5058 -226 l-73 -125 -49 37 c-27 21
-73 45 -103 54 -30 10 -52 19 -50 22 12 12 342 149 345 143 1 -3 -30 -63 -70
-131z m-4299 86 c139 -14 261 -25 270 -25 39 0 212 -250 306 -443 183 -372
266 -829 252 -1377 -3 -124 -11 -283 -17 -355 l-11 -130 -117 -113 c-64 -63
-183 -176 -263 -253 l-146 -139 5 363 c5 387 -5 619 -39 887 -75 599 -244
1099 -508 1512 -34 52 -61 98 -61 103 0 4 17 5 38 2 20 -4 151 -18 291 -32z
m4150 31 c-6 -5 -207 -96 -213 -96 -6 0 -27 63 -22 68 3 2 45 10 93 17 90 13
150 18 142 11z m-305 -58 c9 -12 16 -35 16 -49 0 -25 -13 -35 -147 -106 -82
-43 -151 -79 -155 -81 -3 -2 -4 23 -1 55 4 44 0 71 -16 112 -11 30 -19 56 -18
57 3 3 239 31 279 33 17 1 32 -7 42 -21z m584 -130 l-3 -52 -55 3 c-30 1 -57
4 -59 6 -3 4 82 156 103 184 13 16 19 -52 14 -141z m-3674 97 c127 -8 242 -15
257 -15 23 0 35 -13 84 -87 213 -328 325 -723 325 -1143 0 -215 -35 -511 -63
-536 -6 -6 -59 -51 -117 -101 -58 -49 -163 -143 -234 -207 -71 -64 -131 -115
-133 -113 -2 3 2 77 8 166 15 217 7 697 -15 856 -70 495 -208 840 -480 1194
-9 12 1 13 64 7 41 -3 178 -13 304 -21z m2712 -30 c31 -53 34 -129 9 -191 -14
-35 -32 -49 -164 -126 -82 -49 -151 -88 -154 -88 -3 0 1 24 9 53 30 114 12
246 -46 325 -17 23 -29 43 -28 44 5 2 261 25 305 27 40 1 44 -1 69 -44z m-427
-24 c70 -88 92 -183 68 -296 -30 -141 -25 -135 -286 -309 -129 -86 -236 -155
-237 -153 -1 1 6 32 16 69 26 94 43 249 35 322 -14 131 -60 254 -127 339 -17
21 -29 40 -27 42 4 3 331 20 471 23 54 2 57 1 87 -37z m-1274 14 c25 -5 115
-146 161 -253 97 -224 118 -510 59 -797 -46 -224 -28 -194 -220 -350 -93 -76
-201 -165 -239 -197 -38 -32 -71 -56 -72 -55 -2 2 4 59 13 128 19 150 21 478
4 599 -46 325 -141 602 -296 857 -25 40 -45 76 -45 79 0 6 603 -5 635 -11z
m664 -51 c127 -138 168 -333 122 -571 -11 -54 -30 -127 -43 -162 l-23 -64
-230 -172 c-126 -95 -231 -172 -231 -171 -1 0 10 53 23 116 33 156 43 433 19
566 -28 161 -99 347 -175 459 -12 17 -21 35 -21 40 0 6 92 10 256 10 l256 0
47 -51z m1669 -49 c30 -16 62 -40 71 -54 18 -26 18 -26 -68 -188 -47 -89 -88
-163 -91 -163 -3 0 -26 24 -50 53 -79 94 -191 171 -300 204 -30 9 -59 20 -63
23 -4 4 48 36 115 71 68 35 132 69 143 76 13 8 51 11 105 10 72 -3 93 -7 138
-32z m310 -81 c21 -15 22 -21 22 -170 0 -101 -4 -154 -10 -154 -6 0 -25 8 -43
17 -43 23 -175 22 -236 -1 -24 -9 -46 -14 -48 -12 -2 2 32 71 76 152 71 133
84 151 118 166 48 22 92 23 121 2z m-767 -130 c85 -27 176 -82 233 -140 39
-40 96 -117 96 -130 0 -12 -184 -384 -190 -384 -3 0 -25 37 -50 82 -100 181
-275 324 -477 389 -40 12 -73 26 -73 29 0 3 69 47 153 97 172 104 163 102 308
57z m-362 -260 c190 -70 356 -235 446 -441 l18 -43 -33 -72 c-71 -157 -132
-294 -142 -318 -9 -24 -11 -21 -42 46 -145 312 -419 496 -813 546 -51 7 -93
15 -93 18 0 3 105 76 234 162 l235 157 58 -14 c32 -8 91 -26 132 -41z m1109 3
l42 -27 0 -201 c0 -188 -1 -201 -17 -194 -173 73 -310 79 -488 24 -37 -11 -69
-18 -72 -16 -2 3 39 90 91 195 l95 190 78 31 c67 27 89 31 154 29 63 -3 82 -8
117 -31z m-1649 -353 c387 -57 644 -255 761 -588 l18 -49 -65 -156 c-35 -86
-80 -196 -100 -246 -19 -49 -38 -94 -43 -98 -4 -5 -29 22 -55 60 -198 281
-474 499 -790 623 -44 18 -156 51 -249 74 l-169 43 84 65 c46 36 152 115 234
176 l150 112 59 0 c32 0 106 -7 165 -16z m1540 -89 c30 -8 75 -25 100 -38 44
-22 46 -25 52 -78 5 -40 12 -481 9 -552 0 -4 -29 13 -64 38 -80 57 -213 120
-297 140 -104 25 -260 30 -368 11 -52 -9 -95 -15 -96 -14 -3 3 133 306 170
383 17 34 30 44 85 67 133 54 301 72 409 43z m-2120 -342 c458 -100 840 -361
1083 -743 l36 -56 -19 -49 c-11 -28 -51 -135 -89 -240 -37 -104 -73 -203 -80
-219 l-11 -29 -45 73 c-100 162 -276 353 -439 476 -276 208 -631 345 -1064
411 l-54 8 163 135 c90 74 202 165 249 202 97 76 77 73 270 31z m1901 -209
c131 -32 372 -175 384 -229 3 -11 8 -116 11 -233 l7 -213 -54 31 c-216 128
-382 174 -628 174 -144 0 -180 -4 -280 -27 -63 -15 -118 -27 -122 -27 -6 0
115 307 175 442 24 54 28 58 79 72 128 37 298 41 428 10z m-2359 -264 c585
-118 1011 -398 1298 -855 l54 -86 -94 -290 c-52 -159 -96 -289 -99 -289 -3 0
-24 24 -45 52 -65 85 -331 347 -450 442 -399 319 -851 521 -1350 602 -58 10
-104 21 -103 25 3 10 95 93 328 297 l165 145 74 -7 c41 -3 141 -19 222 -36z
m2322 -290 c49 -11 128 -36 175 -57 92 -39 241 -123 259 -145 6 -8 13 -108 17
-243 4 -126 10 -241 13 -254 5 -18 3 -23 -8 -18 -8 3 -72 33 -144 65 -154 71
-277 114 -418 144 -83 18 -134 22 -272 22 -185 0 -250 -11 -404 -64 -46 -16
-86 -28 -88 -26 -3 3 99 294 156 442 l32 81 72 21 c218 65 414 75 610 32z
m-2925 -215 c663 -129 1219 -469 1696 -1037 l47 -57 -65 -228 c-36 -125 -80
-285 -97 -355 -18 -71 -36 -128 -39 -128 -3 0 -29 32 -58 70 -134 180 -326
380 -508 531 -424 352 -992 601 -1597 699 -72 12 -143 24 -156 27 -22 4 -5 23
155 176 98 94 217 209 264 255 l85 83 71 -5 c39 -3 130 -17 202 -31z m2658
-336 c128 -12 271 -46 404 -96 104 -39 330 -149 330 -161 0 -4 7 -108 15 -231
8 -124 13 -226 12 -228 -2 -1 -25 11 -51 27 -200 127 -411 184 -681 183 -234
0 -411 -34 -698 -133 -79 -27 -147 -50 -150 -50 -13 0 168 554 185 567 57 42
274 109 398 122 121 12 116 12 236 0z m254 -585 c167 -29 323 -91 456 -182
l59 -39 23 -244 c13 -134 25 -262 29 -285 l5 -41 -131 44 c-455 152 -908 152
-1366 -1 -124 -42 -326 -126 -353 -148 -7 -6 -15 -8 -18 -5 -6 6 53 234 132
511 30 104 54 190 54 192 0 6 70 34 199 80 149 53 327 100 454 118 131 20 344
19 457 0z"/>
</g>
</svg>
