<?xml version="1.0" standalone="no"?>
<!DOCTYPE svg PUBLIC "-//W3C//DTD SVG 20010904//EN"
 "http://www.w3.org/TR/2001/REC-SVG-20010904/DTD/svg10.dtd">
<svg version="1.0" xmlns="http://www.w3.org/2000/svg"
 width="735.000000pt" height="730.000000pt" viewBox="0 0 735.000000 730.000000"
 preserveAspectRatio="xMidYMid meet">

<g transform="translate(0.000000,730.000000) scale(0.100000,-0.100000)"
fill="#000000" stroke="none">
<path d="M3170 6947 c0 -19 48 -330 56 -361 4 -18 1 -25 -16 -29 -19 -5 -21
-10 -15 -38 14 -61 8 -271 -10 -354 -44 -209 -135 -380 -284 -538 -119 -125
-292 -225 -476 -274 -88 -23 -119 -26 -255 -26 -127 0 -169 4 -233 21 -91 25
-221 84 -296 135 -30 19 -59 33 -66 31 -7 -3 -100 57 -206 134 -259 185 -273
194 -301 190 -19 -2 14 -32 175 -157 246 -191 348 -281 428 -373 177 -206 239
-367 239 -623 0 -431 -305 -867 -702 -1005 -100 -34 -230 -62 -275 -58 -21 1
-37 -3 -45 -13 -10 -13 -82 -26 -293 -54 -358 -47 -335 -42 -335 -71 0 -17 6
-24 20 -24 11 0 203 20 428 45 446 50 437 50 592 -1 119 -38 223 -105 325
-208 184 -184 287 -398 326 -674 16 -119 7 -317 -21 -412 -42 -146 -78 -198
-270 -391 -96 -97 -238 -235 -315 -307 l-140 -132 55 0 55 0 155 155 c85 85
158 155 162 155 4 0 43 26 86 58 378 280 839 282 1231 4 230 -163 390 -418
431 -688 15 -99 0 -424 -26 -542 -4 -21 19 -43 32 -30 2 3 19 108 38 234 37
258 59 324 148 461 140 215 357 349 671 414 144 30 349 30 469 1 168 -41 285
-110 420 -248 100 -102 147 -162 247 -312 68 -100 87 -122 107 -122 13 0 24 3
24 6 0 4 -23 47 -51 97 -88 156 -169 325 -186 389 -25 92 -25 364 1 473 75
322 270 586 527 716 250 125 465 142 807 62 15 -4 27 1 36 13 13 17 25 14 224
-59 116 -42 213 -77 216 -77 3 0 6 8 6 18 0 15 -39 34 -192 92 -243 93 -454
185 -544 238 -211 123 -343 370 -385 720 -9 80 -10 127 0 212 41 383 258 685
584 815 64 26 68 29 62 54 -6 26 -5 26 222 101 167 55 229 80 231 92 3 18 -27
11 -303 -65 -49 -14 -195 -53 -324 -87 l-233 -63 -84 12 c-250 35 -428 124
-610 305 -209 209 -315 434 -331 701 -9 163 31 341 104 462 29 50 31 57 17 67
-14 11 -1 38 106 220 67 114 124 214 127 222 3 10 -2 14 -18 14 -18 0 -33 -15
-64 -63 -269 -421 -382 -587 -436 -639 -113 -110 -334 -191 -590 -218 -211
-23 -406 12 -594 105 -136 67 -218 128 -332 249 -102 108 -158 196 -173 275
-7 31 -37 173 -69 316 -46 209 -60 261 -74 263 -10 2 -17 -3 -17 -11z m166
-919 c63 -320 59 -415 -22 -587 -48 -102 -107 -182 -201 -272 -137 -131 -277
-198 -457 -221 -153 -19 -289 10 -406 88 -30 20 -64 39 -75 43 -23 7 -286 193
-281 198 2 2 23 -1 47 -7 85 -20 297 -23 400 -6 101 16 239 61 324 104 211
106 418 316 521 528 47 96 94 260 94 327 0 22 3 38 6 34 3 -3 26 -106 50 -229z
m307 -142 c209 -139 437 -206 702 -206 200 0 366 35 542 116 l74 33 -22 -37
c-12 -20 -37 -58 -55 -84 -18 -25 -43 -66 -55 -89 -30 -59 -121 -153 -189
-194 -72 -44 -212 -90 -319 -106 -160 -23 -336 7 -496 85 -239 115 -345 257
-400 536 -14 74 -29 144 -32 154 -3 11 33 -19 80 -66 47 -47 124 -111 170
-142z m1481 -8 c-45 -256 42 -588 212 -809 111 -144 282 -284 441 -360 37 -18
112 -47 166 -65 l99 -32 -173 -42 c-168 -41 -178 -42 -294 -37 -94 4 -136 11
-194 31 -256 89 -445 290 -511 542 -35 137 -21 374 29 472 12 23 25 42 30 42
5 0 11 9 14 20 6 23 179 309 188 310 3 0 0 -33 -7 -72z m-1547 -399 c175 -181
372 -257 638 -246 150 6 264 32 370 82 38 18 71 32 73 30 1 -1 -36 -65 -83
-141 -94 -152 -148 -210 -235 -254 -284 -143 -658 -19 -763 254 -10 28 -30
107 -43 176 -13 69 -26 135 -29 148 -3 12 -3 22 -1 22 2 0 35 -32 73 -71z
m-119 -123 c18 -90 32 -177 32 -192 0 -44 -24 -123 -55 -184 -37 -73 -162
-197 -245 -242 -177 -98 -377 -111 -513 -35 -62 35 -247 168 -247 178 0 4 24
2 53 -3 114 -22 338 16 479 80 183 83 327 234 407 426 17 42 34 89 37 106 4
16 10 30 14 30 3 0 21 -74 38 -164z m1332 -256 c25 -104 93 -243 160 -327 108
-135 306 -261 468 -300 39 -9 69 -20 65 -24 -5 -4 -109 -37 -233 -74 -202 -61
-230 -67 -290 -63 -73 6 -119 26 -195 87 -121 97 -208 242 -223 371 -19 157
10 251 143 470 l70 114 8 -84 c4 -47 16 -123 27 -170z m-2755 -21 c200 -142
260 -204 320 -331 133 -285 55 -637 -191 -857 -96 -85 -242 -149 -377 -166
-32 -4 -61 -13 -65 -20 -6 -10 -335 -56 -392 -55 -8 0 18 18 58 39 94 50 209
139 273 210 125 139 232 341 282 531 26 103 30 131 30 265 0 199 -20 291 -110
494 -8 19 -8 18 172 -110z m1710 -171 c22 -14 74 -38 115 -53 132 -48 337 -45
456 6 26 11 49 18 51 15 9 -9 -113 -205 -127 -206 -8 0 -26 -16 -39 -35 -37
-54 -113 -86 -220 -93 -156 -8 -249 44 -309 175 -28 61 -62 210 -62 271 0 23
2 22 48 -16 26 -21 65 -50 87 -64z m-193 0 c20 -120 12 -243 -21 -310 -40 -84
-122 -139 -245 -164 -85 -18 -144 -12 -205 22 -39 21 -46 23 -60 10 -14 -13
-25 -7 -99 47 -92 69 -91 73 16 76 130 4 292 65 400 151 61 48 144 156 168
218 9 23 20 42 24 42 4 0 14 -42 22 -92z m933 -218 c45 -175 159 -322 304
-392 l74 -35 -68 -23 c-127 -42 -267 -44 -354 -5 -99 46 -165 127 -177 219
-12 86 16 153 151 361 l39 60 7 -60 c4 -33 15 -90 24 -125z m-1951 8 c114
-114 162 -201 178 -325 33 -245 -128 -504 -360 -582 -34 -12 -73 -21 -88 -21
-14 0 -40 -6 -57 -14 -27 -12 -157 -30 -157 -21 0 1 27 19 60 39 163 101 289
268 352 466 20 65 23 95 22 220 0 134 -3 152 -31 238 -17 50 -27 92 -21 92 5
0 51 -42 102 -92z m1095 -140 c39 -191 51 -272 43 -277 -5 -3 -12 -24 -15 -46
-4 -24 -18 -50 -37 -70 -29 -29 -34 -30 -118 -31 l-87 -1 -120 95 c-66 53
-126 100 -133 107 -9 8 4 11 55 11 156 1 302 87 365 216 13 26 26 47 30 48 4
0 11 -24 17 -52z m2691 28 c-8 -7 -52 -45 -97 -84 -144 -126 -244 -282 -299
-467 -36 -123 -45 -335 -20 -486 32 -194 116 -392 218 -520 26 -32 48 -61 48
-63 0 -5 -196 71 -226 87 -12 7 -59 31 -105 55 -109 57 -165 99 -238 178 -125
137 -194 334 -194 559 -1 225 81 397 251 524 121 91 247 149 442 201 116 31
246 41 220 16z m-2568 -51 c115 -62 238 -81 332 -49 26 9 49 14 52 11 8 -8
-137 -257 -147 -251 -5 3 -25 -7 -44 -22 -62 -47 -169 -42 -197 10 -11 19 -69
336 -62 336 2 0 32 -16 66 -35z m-831 -107 c156 -116 156 -116 169 -168 25
-104 -5 -222 -79 -310 -35 -43 -120 -91 -162 -92 -22 -1 -33 -7 -39 -23 -7
-20 -20 -22 -150 -34 -78 -7 -143 -11 -146 -9 -2 3 13 17 35 32 107 75 195
201 228 329 19 74 13 248 -10 312 -25 70 -30 100 -15 88 7 -5 83 -62 169 -125z
m1299 -89 c39 -75 147 -169 213 -185 15 -3 27 -9 27 -13 0 -3 -78 -30 -174
-60 -192 -59 -194 -59 -241 3 -46 60 -29 119 82 277 l58 81 11 -40 c7 -22 18
-50 24 -63z m1307 -2 c-95 -117 -156 -262 -177 -419 -29 -221 54 -499 197
-657 30 -34 53 -64 51 -66 -4 -4 -185 65 -337 130 -232 97 -352 280 -353 536
-1 187 74 305 246 390 34 16 68 34 76 40 18 11 333 109 338 104 2 -2 -17 -28
-41 -58z m-2171 -215 c65 -45 84 -73 84 -128 0 -42 -32 -109 -57 -118 -9 -4
-83 -13 -163 -21 -80 -8 -167 -17 -195 -21 l-49 -6 59 58 c86 84 127 173 133
281 l5 83 61 -43 c33 -24 88 -62 122 -85z m1590 49 c-89 -120 -124 -254 -106
-398 15 -118 52 -217 107 -291 14 -18 23 -35 21 -37 -2 -3 -40 9 -84 25 -214
81 -212 80 -207 99 3 14 -9 26 -50 49 -90 51 -136 134 -137 247 0 80 19 126
78 187 46 48 172 111 287 142 131 36 134 35 91 -23z m-1207 -93 c38 -147 48
-136 24 26 -5 35 -3 38 13 31 40 -16 96 -25 119 -19 14 3 25 3 25 0 0 -4 -20
-46 -44 -94 -43 -85 -58 -104 -104 -130 -26 -15 -34 -10 -164 94 l-77 62 46
13 c30 8 60 27 87 54 23 23 44 43 47 43 4 1 16 -35 28 -80z m255 -41 c15 -21
26 -40 24 -42 -7 -7 -168 -63 -168 -59 0 15 103 155 109 148 4 -5 20 -26 35
-47z m458 -24 c-49 -106 -32 -256 41 -362 l30 -44 -27 7 c-62 15 -237 89 -281
118 -85 56 -97 141 -28 205 25 24 33 38 28 53 -3 11 -3 20 2 20 4 0 58 14 118
30 154 40 149 42 117 -27z m-848 -62 l78 -49 -43 -6 c-24 -3 -68 -7 -98 -10
l-53 -5 7 27 c3 15 9 42 12 60 3 17 8 32 12 32 3 0 41 -22 85 -49z m496 0 c0
-5 -7 -26 -16 -47 -10 -24 -14 -54 -11 -81 2 -24 3 -43 1 -43 -1 0 -56 16
-121 36 -106 32 -167 64 -151 79 3 3 55 17 114 31 60 13 114 26 119 28 19 8
65 6 65 -3z m-225 -238 c49 -98 91 -181 93 -185 2 -3 -23 -4 -56 -1 -57 5 -69
2 -166 -45 -4 -2 -5 42 -2 99 4 57 9 143 11 190 4 84 11 119 24 119 3 0 47
-80 96 -177z m-151 159 c5 -8 -195 -202 -207 -202 -3 0 -8 16 -11 35 -4 19
-22 55 -41 80 -33 42 -33 45 -15 55 10 5 36 10 57 10 21 1 65 7 98 14 72 17
112 19 119 8z m20 -49 c-2 -10 -13 -79 -24 -153 -27 -172 -26 -168 -51 -136
-28 36 -55 49 -111 56 l-48 5 113 122 c61 67 115 122 119 123 3 0 4 -8 2 -17z
m232 -49 l125 -57 -29 -17 c-16 -10 -43 -35 -60 -55 l-30 -38 -47 74 c-26 41
-54 85 -64 99 -27 39 -33 50 -26 50 3 0 62 -25 131 -56z m-662 31 c3 -9 18
-15 35 -15 68 0 121 -90 96 -162 -19 -56 -71 -121 -148 -184 -113 -94 -102
-95 -102 10 0 118 -28 195 -98 272 -27 30 -47 54 -46 55 18 5 210 37 230 38
16 0 29 -5 33 -14z m-352 -51 c51 -26 128 -105 156 -159 22 -42 26 -63 27
-130 0 -71 -4 -88 -34 -150 -28 -58 -61 -97 -197 -235 l-163 -165 20 70 c30
105 23 291 -16 395 -49 134 -131 237 -239 301 -21 12 -34 25 -29 29 8 8 266
47 353 53 25 2 55 4 68 5 13 1 37 -5 54 -14z m-602 -85 c75 -11 169 -53 219
-95 86 -72 158 -239 168 -389 9 -141 -36 -272 -132 -382 -24 -28 -42 -52 -40
-55 2 -2 -25 -33 -62 -69 -36 -35 -62 -55 -58 -44 37 97 48 166 49 305 1 168
-16 245 -85 389 -54 111 -169 229 -279 286 -41 21 -70 40 -65 42 60 20 200 26
285 12z m1978 -54 c34 -15 62 -31 62 -34 0 -4 -16 -15 -36 -26 -70 -37 -149
-148 -169 -237 l-11 -50 -83 136 c-81 133 -82 137 -71 172 16 48 60 74 128 74
28 0 52 5 52 10 0 10 7 8 128 -45z m-2331 7 c179 -56 360 -269 425 -499 31
-115 31 -290 -1 -393 -29 -93 -57 -149 -113 -225 -59 -78 -381 -406 -374 -380
2 11 12 45 20 75 73 253 55 517 -51 785 -107 267 -277 442 -536 550 l-80 33
54 11 c308 60 548 76 656 43z m1621 -104 c9 -7 25 -22 35 -33 20 -23 19 -45
-10 -273 l-17 -132 -23 49 c-28 59 -112 139 -180 172 -35 18 -65 24 -110 24
-35 0 -63 2 -63 5 0 10 175 175 200 189 54 31 128 30 168 -1z m1153 -79 c126
-51 229 -95 229 -99 0 -3 -26 -11 -57 -18 -32 -8 -95 -31 -141 -53 -171 -82
-293 -240 -324 -417 -14 -84 -13 -85 -80 38 -22 41 -70 126 -106 189 l-65 113
6 65 c15 157 162 308 276 282 18 -4 137 -49 262 -100z m-870 51 c19 -5 48 -23
63 -39 16 -16 34 -27 40 -25 8 3 37 -41 73 -108 33 -62 60 -114 59 -115 -1 -1
-28 8 -61 19 -106 36 -242 11 -346 -62 l-29 -21 0 48 c0 81 20 215 37 243 22
37 54 56 123 69 3 0 21 -4 41 -9z m-477 -231 c65 -30 121 -83 150 -141 23 -46
26 -64 26 -155 0 -95 -34 -404 -61 -553 l-12 -65 -18 84 c-10 46 -32 112 -47
145 -100 212 -340 352 -566 331 l-69 -7 29 35 c16 19 95 101 175 182 128 129
152 149 195 161 61 17 141 10 198 -17z m1684 6 c88 -10 422 -116 422 -134 0
-3 -28 -14 -63 -24 -176 -52 -320 -136 -437 -257 -134 -138 -216 -312 -240
-510 -6 -52 -12 -96 -14 -97 -2 -2 -61 94 -132 214 l-129 218 2 76 c4 214 145
414 345 491 56 21 139 37 173 32 11 -1 44 -5 73 -9z m-1041 -90 c96 -44 159
-116 250 -285 17 -30 51 -94 77 -141 25 -47 46 -89 46 -92 0 -3 -31 9 -69 29
-118 60 -237 76 -373 50 -126 -24 -235 -78 -327 -162 -23 -20 -41 -34 -41 -31
0 56 64 534 73 546 25 32 53 53 112 82 80 39 175 41 252 4z m1743 -150 c187
-65 550 -226 550 -244 0 -3 -37 -4 -83 -3 -101 5 -240 -18 -362 -59 -265 -89
-471 -277 -611 -559 -82 -165 -118 -340 -113 -539 2 -66 1 -117 -3 -113 -4 4
-86 145 -182 314 l-176 307 0 65 c0 254 110 505 295 674 134 122 360 208 520
197 33 -2 107 -20 165 -40z m-2680 -194 c30 -13 85 -43 122 -67 152 -101 231
-242 245 -435 3 -54 9 -85 14 -77 12 18 11 12 -10 -167 -17 -148 -18 -150 -30
-105 -25 96 -63 189 -99 243 -99 151 -246 257 -429 309 -124 36 -365 31 -470
-9 -15 -6 -15 -5 -1 16 42 60 204 223 254 256 84 56 122 65 244 61 79 -2 119
-9 160 -25z m1070 -122 c126 -20 232 -88 323 -207 33 -44 247 -410 266 -455 2
-5 -37 22 -85 59 -106 80 -240 146 -347 169 -96 21 -290 16 -382 -9 -139 -39
-271 -128 -368 -251 l-40 -50 7 45 c7 55 46 434 46 455 0 23 93 118 150 155
59 38 143 68 235 85 89 17 115 17 195 4z m-1237 -213 c222 -75 398 -254 473
-483 25 -75 29 -103 28 -188 -2 -108 -59 -654 -74 -695 l-8 -25 -1 26 c-1 38
-54 188 -98 274 -131 262 -384 465 -698 561 -84 26 -102 28 -275 28 -173 0
-191 -2 -273 -27 -48 -15 -117 -40 -153 -57 -36 -16 -64 -25 -62 -21 7 19 313
339 386 404 200 179 357 242 578 232 73 -3 123 -11 177 -29z m1379 -261 c81
-17 170 -52 245 -96 68 -40 214 -183 263 -256 19 -29 42 -53 51 -53 11 0 61
-75 142 -215 69 -118 123 -215 121 -215 -3 0 -33 22 -67 48 -126 96 -270 162
-427 194 -136 29 -352 21 -500 -17 -294 -75 -518 -247 -660 -504 -24 -44 -46
-79 -47 -77 -3 3 48 459 83 736 15 121 20 139 47 175 114 151 250 240 416 276
105 22 243 24 333 4z"/>
</g>
</svg>
